# xmcd
#
# Track frame offsets:
#       150
#       21827
#       46937
#       69350
#       86702
#       106147
#       127720
#       145727
#       167857
#       184007
#       206352
#       231950
#       247365
#
# Disc length: 3629 seconds
#
# Revision: 0
# Processed by: cddbd v1.4PL0 Copyright (c) Steve Scherf et al.
# Submitted via: CD-DA_X-Tractor v0.24
#
DISCID=ad0e2b0d
DTITLE=drive a british car - a clash in the park
DYEAR=1994
DGENRE=
TTITLE0=slick city
TTITLE1=the ad
TTITLE2=actor and substitute
TTITLE3=so many other
TTITLE4=she´s leaving
TTITLE5=citadel
TTITLE6=man in the middle of the mean
TTITLE7=friday starts the serial killer
TTITLE8=ring me up
TTITLE9=the beat goes on
TTITLE10=singin´ the blues
TTITLE11=sandman come
TTITLE12=new year´s day in 84
EXTD=
EXTT0=
EXTT1=
EXTT2=
EXTT3=
EXTT4=
EXTT5=
EXTT6=
EXTT7=
EXTT8=
EXTT9=
EXTT10=
EXTT11=
EXTT12=
PLAYORDER=
